<svg width="32" height="32" viewBox="0 0 32 32" fill="none" xmlns="http://www.w3.org/2000/svg">
  <circle cx="16" cy="16" r="15" fill="#1E40AF"/>
  <path d="M6.88 21L9.46 14.31H9.5L12.08 21H10.45L9.88 19.59H7.07L6.5 21H4.87L6.88 21ZM9.5 18.35L8.51 15.76H8.48L7.48 18.35H9.5Z" fill="white"/>
  <path d="M13.09 21V14.31H14.8V19.4H18.22V21H13.09Z" fill="white"/>
  <path d="M19.59 21V14.31H22.7C23.31 14.31 23.82 14.43 24.24 14.67C24.65 14.91 24.96 15.24 25.17 15.65C25.38 16.06 25.48 16.53 25.48 17.05C25.48 17.58 25.38 18.05 25.16 18.46C24.95 18.86 24.63 19.18 24.21 19.42C23.79 19.66 23.27 19.78 22.65 19.78H21.22V21H19.59ZM21.22 18.5H22.54C22.87 18.5 23.13 18.39 23.3 18.16C23.48 17.94 23.56 17.62 23.56 17.21C23.56 16.83 23.47 16.53 23.29 16.31C23.12 16.09 22.86 15.98 22.53 15.98H21.22V18.5Z" fill="white"/>
</svg> 