<?xml version="1.0" encoding="UTF-8"?>
<svg width="192" height="192" viewBox="0 0 192 192" fill="none" xmlns="http://www.w3.org/2000/svg">
  <circle cx="96" cy="96" r="92" fill="#1E40AF"/>
  <path d="M44.864 112L58.832 75.312H58.992L72.96 112H64.4L61.632 103.648H48.24L45.472 112H36.944L44.864 112ZM60 95.6L55.056 82.912H54.976L49.952 95.6H60Z" fill="white"/>
  <path d="M78.09 112V75.312H86.5V103.6H107.09V112H78.09Z" fill="white"/>
  <path d="M110.83 112V75.312H127.15C130.163 75.312 132.67 75.7973 134.67 76.768C136.67 77.7387 138.163 79.1467 139.15 80.992C140.136 82.8373 140.63 85.04 140.63 87.6C140.63 90.16 140.123 92.3627 139.11 94.208C138.096 96.0533 136.576 97.4613 134.55 98.432C132.523 99.4027 130.003 99.888 126.99 99.888H119.23V112H110.83ZM119.23 93.2H126.67C128 93.2 129.056 92.7627 129.83 91.888C130.603 91.0133 130.99 89.6267 130.99 87.744C130.99 85.9147 130.603 84.5387 129.83 83.616C129.056 82.6933 128 82.232 126.67 82.232H119.23V93.2Z" fill="white"/>
</svg> 