<?xml version="1.0" encoding="UTF-8"?>
<svg width="512" height="512" viewBox="0 0 512 512" fill="none" xmlns="http://www.w3.org/2000/svg">
  <circle cx="256" cy="256" r="246" fill="#1E40AF"/>
  <path d="M109.04 300L145.888 201.6H146.304L183.152 300H161.067L153.688 277.6H118.112L110.733 300H88.648L109.04 300ZM149.333 255.6L136.148 221.6H135.944L122.56 255.6H149.333Z" fill="white"/>
  <path d="M204.24 300V201.6H227.6V277.6H275.573V300H204.24Z" fill="white"/>
  <path d="M290.547 300V201.6H334.067C342.102 201.6 348.653 203.067 353.72 206C358.787 208.933 362.493 213.067 364.84 218.4C367.187 223.733 368.36 229.867 368.36 236.8C368.36 243.733 367.16 249.867 364.76 255.2C362.36 260.533 358.573 264.667 353.4 267.6C348.227 270.533 341.64 272 333.64 272H313.64V300H290.547ZM313.64 252H332.84C336.333 252 338.973 250.8 340.76 248.4C342.547 246 343.44 242.267 343.44 237.2C343.44 232.4 342.547 228.8 340.76 226.4C338.973 224 336.333 222.8 332.84 222.8H313.64V252Z" fill="white"/>
</svg> 